<?xml version="1.0" encoding="UTF-8"?>
<svg xmlns="http://www.w3.org/2000/svg" xmlns:xlink="http://www.w3.org/1999/xlink" width="350px" height="80px" viewBox="0 0 351 80" version="1.1">
  <g id="surface1">
    <path style="fill:none;stroke-width:2;stroke-linecap:round;stroke-linejoin:miter;stroke:rgb(0%,0%,0%);stroke-opacity:1;stroke-miterlimit:4;" d="M -0.00486245 -8.002232 C 2.500479 -3.247768 7.499979 -0.245536 12.499478 0.000000000000028422 C 19.993134 0.000000000000028422 24.992634 -2.745536 27.486791 -7.5 C 29.992133 -12.254464 29.992133 -17.991071 27.486791 -22.991071 C 24.992634 -27.991071 19.993134 -31.495536 14.993635 -31.741071 C 10.005321 -31.986607 4.994637 -34.241071 2.500479 -38.738839 C -0.00486245 -43.482143 -0.00486245 -48.984375 2.500479 -53.381696 C 4.994637 -57.801339 10.005321 -60.379464 14.993635 -60.044643 C 19.993134 -59.732143 24.992634 -56.551339 27.486791 -51.830357 " transform="matrix(0.349254,0,0,0.35,0.0681045,63)"/>
    <path style="fill:none;stroke-width:2;stroke-linecap:round;stroke-linejoin:miter;stroke:rgb(0%,0%,0%);stroke-opacity:1;stroke-miterlimit:4;" d="M 52.476409 -48.482143 C 44.546554 -58.537946 31.12508 -62.455357 19.023384 -58.270089 C 6.921688 -54.073661 -1.187119 -42.667411 -1.187119 -29.854911 C -1.187119 -17.064732 6.921688 -5.658482 19.023384 -1.462054 C 31.12508 2.745536 44.546554 -1.194196 52.476409 -11.25 " transform="matrix(0.349254,0,0,0.35,19.270075,63)"/>
    <path style="fill:none;stroke-width:2;stroke-linecap:round;stroke-linejoin:miter;stroke:rgb(0%,0%,0%);stroke-opacity:1;stroke-miterlimit:4;" d="M 0.00390491 0.245536 C 0.00390491 0.245536 0.00390491 -94.285714 0.00390491 -94.285714 M 0.00390491 -48.482143 C 5.003404 -56.149554 14.991218 -60.479911 24.990216 -60.078125 C 37.494557 -59.497768 47.48237 -48.984375 47.48237 -36.495536 C 47.48237 -36.495536 47.48237 0.245536 47.48237 0.245536 " transform="matrix(0.349254,0,0,0.35,46.326761,63)"/>
    <path style="fill:none;stroke-width:2;stroke-linecap:round;stroke-linejoin:miter;stroke:rgb(0%,0%,0%);stroke-opacity:1;stroke-miterlimit:4;" d="M 52.481989 -36.495536 C 52.481989 -36.495536 0.00402377 -36.495536 0.00402377 -36.495536 M 52.481989 -36.495536 C 52.481989 -48.984375 42.48299 -59.497768 29.989834 -60.078125 C 19.990836 -60.435268 10.003022 -55.334821 5.003523 -46.729911 C -2.501318 -37.991071 -2.501318 -26.986607 2.498181 -17.488839 C 5.003523 -8.002232 14.991337 -1.495536 24.990335 -0.245536 C 34.989334 1.004464 44.977147 -3.002232 52.481989 -11.25 " transform="matrix(0.349254,0,0,0.35,72.510313,63)"/>
    <path style="fill:none;stroke-width:2;stroke-linecap:round;stroke-linejoin:miter;stroke:rgb(0%,0%,0%);stroke-opacity:1;stroke-miterlimit:4;" d="M 94.955231 0.245536 C 94.955231 0.245536 94.955231 -36.495536 94.955231 -36.495536 C 94.955231 -48.984375 84.967417 -59.497768 72.474261 -60.078125 M 72.474261 -60.078125 C 62.475263 -59.854911 52.476265 -54.453125 47.476765 -45.725446 M 24.984611 -60.078125 C 14.985613 -60.479911 4.997799 -56.149554 -0.00170005 -48.482143 M 47.476765 0.245536 C 47.476765 0.245536 47.476765 -36.495536 47.476765 -36.495536 C 47.476765 -48.984375 37.488952 -59.497768 24.984611 -60.078125 M -0.00170005 -1.004464 C -0.00170005 -1.004464 -0.00170005 -60.078125 -0.00170005 -60.078125 " transform="matrix(0.349254,0,0,0.35,99.567,63)"/>
    <path style="fill:none;stroke-width:2;stroke-linecap:round;stroke-linejoin:miter;stroke:rgb(0%,0%,0%);stroke-opacity:1;stroke-miterlimit:4;" d="M 52.474849 -60.078125 C 52.474849 -60.078125 52.474849 0.245536 52.474849 0.245536 M 52.474849 -48.482143 C 44.981193 -58.526786 32.488037 -62.455357 19.994881 -58.28125 C 7.501725 -54.084821 -0.00311565 -42.734375 -0.00311565 -29.743304 C -0.00311565 -16.986607 7.501725 -5.747768 19.994881 -1.495536 C 32.488037 2.745536 44.981193 -1.25 52.474849 -11.25 " transform="matrix(0.349254,0,0,0.35,142.333119,63)"/>
    <path style="fill:none;stroke-width:2;stroke-linecap:round;stroke-linejoin:miter;stroke:rgb(0%,0%,0%);stroke-opacity:1;stroke-miterlimit:4;" d="M -0.0034976 -77.299107 C -0.0034976 -77.299107 -0.0034976 -23.493304 -0.0034976 -23.493304 C -0.0034976 -9.754464 12.500843 1.004464 24.993998 0.245536 M -5.002997 -60.078125 C -5.002997 -60.078125 24.993998 -60.078125 24.993998 -60.078125 M 24.993998 0.245536 L 24.993998 0.245536 " transform="matrix(0.349254,0,0,0.35,170.26294,63)"/>
    <path style="fill:none;stroke-width:2;stroke-linecap:round;stroke-linejoin:miter;stroke:rgb(0%,0%,0%);stroke-opacity:1;stroke-miterlimit:4;" d="M -0.00553285 -77.299107 L -0.00553285 -77.299107 M -0.00553285 -60.078125 C -0.00553285 -60.078125 -0.00553285 0.245536 -0.00553285 0.245536 " transform="matrix(0.349254,0,0,0.35,188.591776,63)"/>
    <path style="fill:none;stroke-width:2;stroke-linecap:round;stroke-linejoin:miter;stroke:rgb(0%,0%,0%);stroke-opacity:1;stroke-miterlimit:4;" d="M 52.479928 -48.482143 C 44.550073 -58.537946 31.117415 -62.455357 19.015718 -58.270089 C 6.925207 -54.073661 -1.194785 -42.667411 -1.194785 -29.854911 C -1.194785 -17.064732 6.925207 -5.658482 19.015718 -1.462054 C 31.117415 2.745536 44.550073 -1.194196 52.479928 -11.25 " transform="matrix(0.349254,0,0,0.35,197.319627,63)"/>
    <path style="fill:none;stroke-width:2;stroke-linecap:round;stroke-linejoin:miter;stroke:rgb(0%,0%,0%);stroke-opacity:1;stroke-miterlimit:4;" d="M -0.00376068 0.245536 C -0.00376068 0.245536 -0.00376068 0.000000000000028422 -0.00376068 0.000000000000028422 " transform="matrix(0.349254,0,0,0.35,224.376313,63)"/>
    <path style="fill:none;stroke-width:2;stroke-linecap:round;stroke-linejoin:miter;stroke:rgb(0%,0%,0%);stroke-opacity:1;stroke-miterlimit:4;" d="M 52.482201 -48.482143 C 44.552346 -58.537946 31.119688 -62.455357 19.017991 -58.270089 C 6.916295 -54.073661 -1.192512 -42.667411 -1.192512 -29.854911 C -1.192512 -17.064732 6.916295 -5.658482 19.017991 -1.462054 C 31.119688 2.745536 44.552346 -1.194196 52.482201 -11.25 " transform="matrix(0.349254,0,0,0.35,231.357896,63)"/>
    <path style="fill:none;stroke-width:2;stroke-linecap:round;stroke-linejoin:miter;stroke:rgb(0%,0%,0%);stroke-opacity:1;stroke-miterlimit:4;" d="M -0.00148771 0.245536 C -0.00148771 0.245536 -0.00148771 -94.285714 -0.00148771 -94.285714 " transform="matrix(0.349254,0,0,0.35,258.414582,63)"/>
    <path style="fill:none;stroke-width:2;stroke-linecap:round;stroke-linejoin:miter;stroke:rgb(0%,0%,0%);stroke-opacity:1;stroke-miterlimit:4;" d="M 59.982971 -31.238839 C 59.982971 -48.727679 47.478631 -63.426339 29.985976 -63.426339 C 12.504506 -63.426339 0.000165598 -48.727679 0.000165598 -31.238839 C 0.000165598 -13.738839 12.504506 1.004464 29.985976 1.004464 C 47.478631 1.004464 59.982971 -13.738839 59.982971 -31.238839 " transform="matrix(0.349254,0,0,0.35,268.015567,63)"/>
    <path style="fill:none;stroke-width:2;stroke-linecap:round;stroke-linejoin:miter;stroke:rgb(0%,0%,0%);stroke-opacity:1;stroke-miterlimit:4;" d="M -0.000717147 -23.493304 C -0.000717147 -23.493304 -0.000717147 -60.078125 -0.000717147 -60.078125 M -0.000717147 -23.493304 C -0.112563 -10.814732 9.830513 -0.334821 22.491437 0.245536 M 47.477748 -60.078125 C 47.477748 -60.078125 47.477748 0.245536 47.477748 0.245536 M 22.491437 0.245536 C 32.188452 0.680804 41.505192 -3.604911 47.477748 -11.25 " transform="matrix(0.349254,0,0,0.35,297.691657,63)"/>
    <path style="fill:none;stroke-width:2;stroke-linecap:round;stroke-linejoin:miter;stroke:rgb(0%,0%,0%);stroke-opacity:1;stroke-miterlimit:4;" d="M 54.977366 0.245536 C 54.977366 0.245536 54.977366 -97.544643 54.977366 -97.544643 M 54.977366 -48.482143 C 47.047512 -58.537946 33.614853 -62.455357 21.524342 -58.270089 C 9.422646 -54.073661 1.313838 -42.667411 1.313838 -29.854911 C 1.313838 -17.064732 9.422646 -5.658482 21.524342 -1.462054 C 33.614853 2.745536 47.047512 -1.194196 54.977366 -11.25 " transform="matrix(0.349254,0,0,0.35,323.002075,63)"/>
  </g>
</svg>
